<?xml version="1.0" encoding="UTF-8"?>
<svg id="Layer_2" data-name="Layer 2" xmlns="http://www.w3.org/2000/svg" viewBox="0 0 165.38 168.2">
  <defs>
    <style>
      .cls-1, .cls-2, .cls-3 {
        fill: #1a2b3c;
      }

      .cls-1, .cls-4 {
        opacity: .25;
      }

      .cls-2 {
        opacity: .05;
      }

      .cls-4 {
        fill: #eff6ff;
      }

      .cls-5 {
        fill: #f3c9ae;
      }

      .cls-6 {
        fill: #ff25ba;
      }

      .cls-7 {
        fill: #470937;
      }

      .cls-8 {
        fill: #ff8b8d;
      }
    </style>
  </defs>
  <g id="Character_2_copy" data-name="Character 2 copy">
    <g id="Body_copy_2" data-name="Body copy 2">
      <path id="Shirt" class="cls-6" d="M70.07,112.17h26.45c19.93,0,36.12,16.18,36.12,36.12h0c0,10.99-8.92,19.91-19.91,19.91h-58.86c-10.99,0-19.91-8.92-19.91-19.91h0c0-19.93,16.18-36.12,36.12-36.12Z"/>
      <path id="Shirt_Highlight" data-name="Shirt Highlight" class="cls-4" d="M115.29,117.41s-36.12-2.95-54.15,4.87c-15.77,6.85-26.41,22.59-27.12,24.04,1.01-19.03,16.77-34.16,36.06-34.16h26.45c6.87,0,13.29,1.92,18.76,5.25Z"/>
      <path id="Shirt_Shadow" data-name="Shirt Shadow" class="cls-1" d="M132.65,148.28c0,11-8.92,19.92-19.92,19.92h-58.86c-5.5,0-10.48-2.23-14.08-5.84-.49-.49-.95-1-1.38-1.54.4.17,10.03,4.21,50.45.38,41.32-3.92,32.72-38.92,32.72-38.92h.02c.16.15.32.31.47.46,6.54,6.54,10.58,15.57,10.58,25.54Z"/>
      <circle id="Neck_Shading" data-name="Neck Shading" class="cls-1" cx="82.77" cy="112.54" r="17.64"/>
    </g>
    <g id="Head_copy_2" data-name="Head copy 2">
      <path id="Hair" class="cls-7" d="M22.65,62.26C22.65,27.87,49.53,0,82.69,0s60.04,27.87,60.04,62.26-26.88,60.02-60.04,60.02-60.04-25.64-60.04-60.02Z"/>
      <g>
        <path class="cls-7" d="M55.45,16.87S32.31-7.88,8.48,25.12c0,0-11.69,14.89-3.9,44.68C12.37,99.59,0,110.82,0,110.82c0,0,23.14,11.46,31.85-20.85"/>
        <path class="cls-7" d="M109.93,16.87s23.14-24.75,46.97,8.25c0,0,11.69,14.89,3.9,44.68-7.79,29.79,4.58,41.02,4.58,41.02,0,0-23.14,11.46-31.85-20.85"/>
      </g>
      <path id="Face" class="cls-5" d="M145.76,74.86c0,6.06-4.46,10.98-9.97,10.98-.68,0-1.34-.07-1.98-.21-4.27,24.47-25.5,38.42-51.04,38.42s-46.77-13.95-51.04-38.42c-.64.14-1.3.21-1.98.21-5.51,0-9.97-4.92-9.97-10.98s4.46-10.99,9.97-10.99c.91,0,1.79.13,2.62.39,5.45-21.4,25.95-30.19,50.4-30.19s44.95,8.79,50.4,30.19c.83-.26,1.71-.39,2.62-.39,5.51,0,9.97,4.92,9.97,10.99Z"/>
      <rect id="Bangs" class="cls-7" x="36.78" y="28.71" width="91.98" height="25.94" rx="4.32" ry="4.32"/>
      <path id="Mouth" class="cls-3" d="M72.69,98.06h20.17c2.09,0,3.79,1.7,3.79,3.79v.06c0,7.66-6.22,13.88-13.88,13.88h0c-7.66,0-13.88-6.22-13.88-13.88v-.06c0-2.09,1.7-3.79,3.79-3.79Z"/>
      <g id="Eyes">
        <ellipse class="cls-3" cx="105.97" cy="66.22" rx="9.33" ry="11.57"/>
        <ellipse class="cls-3" cx="59.57" cy="66.22" rx="9.33" ry="11.57"/>
      </g>
      <ellipse id="Nose" class="cls-2" cx="82.61" cy="84.13" rx="6.21" ry="4.46"/>
      <path id="Face_Shading" data-name="Face Shading" class="cls-2" d="M145.76,74.86c0,6.05-4.46,10.98-9.97,10.98-.68,0-1.34-.08-1.98-.21-4.27,24.47-25.5,38.41-51.04,38.41-7.49,0-14.61-1.2-21.04-3.51,78.8-1.66,64.09-70.76,64.09-70.76,3.38,3.98,5.9,8.79,7.35,14.48.83-.26,1.71-.38,2.62-.38,5.51,0,9.97,4.91,9.97,10.99Z"/>
      <g id="Blush">
        <g>
          <ellipse class="cls-8" cx="46.81" cy="84.93" rx="11.42" ry="7.15"/>
          <ellipse class="cls-8" cx="118.74" cy="84.93" rx="11.42" ry="7.15"/>
        </g>
      </g>
    </g>
  </g>
</svg>